<?xml version="1.0" encoding="UTF-8" standalone="no"?>
<!-- Generated by IcoMoon.io -->

<svg
   xmlns:dc="http://purl.org/dc/elements/1.1/"
   xmlns:cc="http://creativecommons.org/ns#"
   xmlns:rdf="http://www.w3.org/1999/02/22-rdf-syntax-ns#"
   xmlns:svg="http://www.w3.org/2000/svg"
   xmlns="http://www.w3.org/2000/svg"
   xmlns:sodipodi="http://sodipodi.sourceforge.net/DTD/sodipodi-0.dtd"
   xmlns:inkscape="http://www.inkscape.org/namespaces/inkscape"
   version="1.1"
   width="34.701"
   height="95.112"
   viewBox="0 0 34.701 95.112"
   id="svg2"
   inkscape:version="0.91 r13725"
   sodipodi:docname="pepper.svg">
  <metadata
     id="metadata10">
    <rdf:RDF>
      <cc:Work
         rdf:about="">
        <dc:format>image/svg+xml</dc:format>
        <dc:type
           rdf:resource="http://purl.org/dc/dcmitype/StillImage" />
        <dc:title></dc:title>
      </cc:Work>
    </rdf:RDF>
  </metadata>
  <defs
     id="defs8" />
  <sodipodi:namedview
     pagecolor="#ffffff"
     bordercolor="#666666"
     borderopacity="1"
     objecttolerance="10"
     gridtolerance="10"
     guidetolerance="10"
     inkscape:pageopacity="0"
     inkscape:pageshadow="2"
     inkscape:window-width="1871"
     inkscape:window-height="1056"
     id="namedview6"
     showgrid="false"
     fit-margin-top="0"
     fit-margin-left="0"
     fit-margin-right="0"
     fit-margin-bottom="0"
     inkscape:zoom="14.75"
     inkscape:cx="26.369586"
     inkscape:cy="59.026124"
     inkscape:window-x="1969"
     inkscape:window-y="24"
     inkscape:window-maximized="1"
     inkscape:current-layer="svg2" />
  <path
     d="M 17.322,6.159 C 11.31,6.21 5.913,9.384 3.825,14.265 1.737,19.146 3.528,24.654 8.175,27.939 L 9.114,26.61 C 4.995,23.697 3.534,19.08 5.322,14.907 7.11,10.734 11.889,7.833 17.337,7.788 c 5.445,-0.045 10.299,2.775 12.183,6.924 1.884,4.149 0.534,8.784 -3.513,11.763 l 0.963,1.311 C 31.542,24.423 33.201,18.882 31.002,14.04 28.803,9.198 23.337,6.114 17.322,6.162 Z M 4.713,69.615 c -2.001,0 -3.639,1.638 -3.639,3.639 0,0 0,0 0,0 0,0.057 0.006,0.114 0.018,0.168 0.087,1.92 1.677,3.471 3.624,3.471 l 25.317,0 c 1.95,0 3.54,-1.554 3.624,-3.483 0.009,-0.048 0.015,-0.102 0.015,-0.159 0,-1.998 -1.638,-3.636 -3.639,-3.636 l -25.317,0 z m 0,1.629 25.317,0 c 1.128,0 2.013,0.885 2.013,2.013 0,1.128 -0.885,2.013 -2.013,2.013 l -25.317,0 C 3.585,75.27 2.7,74.385 2.7,73.257 2.7,72.129 3.585,71.244 4.713,71.244 Z M 6.42,26.445 c -2.844,0 -5.16,2.316 -5.16,5.16 0,0 0,0 0,0 0,0.057 0.006,0.114 0.018,0.168 0.087,2.763 2.355,4.992 5.142,4.992 l 22.029,0 c 2.79,0 5.061,-2.232 5.145,-5.004 0.009,-0.048 0.015,-0.102 0.015,-0.159 0,-2.841 -2.316,-5.157 -5.16,-5.157 l -22.029,0 z m 0,1.626 22.029,0 c 1.971,0 3.534,1.563 3.534,3.534 0,1.971 -1.563,3.534 -3.534,3.534 l -22.029,0 c -1.971,0 -3.534,-1.563 -3.534,-3.534 0,-1.971 1.56,-3.534 3.534,-3.534 z m 22.407,7.227 c 0,0 -6.894,16.182 -0.018,35.433 l 1.533,-0.546 C 23.679,51.531 30.324,35.937 30.324,35.937 L 28.827,35.298 Z M 6.237,35.316 4.74,35.955 c 0,0 6.645,15.594 -0.018,34.248 l 1.533,0.546 C 13.131,51.498 6.237,35.316 6.237,35.316 Z m -1.47,39.951 c -2.001,0 -3.639,1.638 -3.639,3.639 0,0 0,0 0,0 0,0.057 0.006,0.114 0.018,0.168 0.087,1.92 1.677,3.471 3.624,3.471 l 25.317,0 c 1.95,0 3.54,-1.554 3.624,-3.483 0.009,-0.048 0.015,-0.102 0.015,-0.159 0,-1.998 -1.638,-3.636 -3.639,-3.636 l -25.317,0 z m 0,1.626 25.317,0 c 1.128,0 2.013,0.885 2.013,2.013 0,1.128 -0.885,2.013 -2.013,2.013 l -25.317,0 c -1.128,0 -2.013,-0.885 -2.013,-2.013 0,-1.128 0.885,-2.013 2.013,-2.013 z M 4.32,80.937 C 1.941,80.937 0,82.878 0,85.257 l 0,5.535 c 0,2.379 1.941,4.32 4.32,4.32 l 26.061,0 c 2.379,0 4.32,-1.941 4.32,-4.32 l 0,-5.535 c 0,-2.379 -1.941,-4.32 -4.32,-4.32 l -26.061,0 z m 0,1.626 26.061,0 c 1.506,0 2.694,1.188 2.694,2.694 l 0,5.535 c 0,1.506 -1.188,2.694 -2.694,2.694 l -26.061,0 c -1.506,0 -2.694,-1.188 -2.694,-2.694 l 0,-5.535 c 0,-1.506 1.188,-2.694 2.694,-2.694 z M 17.838,0.003 C 16.752,0 15.66,0.387 14.787,1.17 c -1.743,1.566 -2.103,4.197 -0.861,6.171 0.036,0.06 0.084,0.12 0.144,0.174 0.33,0.3 0.846,0.273 1.149,-0.06 0.255,-0.279 0.282,-0.687 0.09,-0.99 -0.828,-1.314 -0.579,-3.069 0.555,-4.089 1.134,-1.02 2.766,-1.017 3.882,0.015 1.116,1.032 1.32,2.79 0.471,4.092 -0.222,0.333 -0.177,0.78 0.123,1.053 0.33,0.3 0.846,0.273 1.149,-0.06 C 21.522,7.44 21.552,7.401 21.579,7.359 22.863,5.394 22.563,2.763 20.859,1.188 20.007,0.402 18.927,0.003 17.838,0 Z M 6.879,69.387 c 0,-0.075 0.21,-0.885 0.465,-1.797 2.61,-9.336 2.679,-19.407 0.198,-28.476 l -0.606,-2.211 21.177,0 -0.12,0.414 c -1.758,6.15 -2.46,11.538 -2.259,17.37 0.162,4.674 0.948,9.606 2.157,13.518 0.198,0.645 0.363,1.203 0.363,1.245 0,0.042 -4.809,0.072 -10.689,0.072 -5.88,0 -10.689,-0.063 -10.686,-0.138 z M 4.878,34.665 C 3.273,33.87 2.535,31.719 3.336,30.162 c 0.441,-0.861 1.047,-1.455 1.755,-1.725 0.348,-0.132 4.431,-0.198 12.402,-0.198 11.559,0 11.904,0.009 12.612,0.372 2.466,1.257 2.298,4.932 -0.276,6.099 -0.696,0.318 -1.491,0.339 -12.447,0.342 -11.598,0.003 -11.709,0 -12.501,-0.39 z m 2.757,-9.51 C 3.123,20.592 3.855,14.193 9.327,10.35 c 6.504,-4.569 16.713,-2.439 19.95,4.161 1.776,3.621 1.053,7.572 -1.941,10.62 l -1.245,1.266 -17.226,0 -1.23,-1.245 z M 17.481,6.174 C 16.008,6.135 15.228,6.042 15.135,5.892 15.057,5.769 14.991,5.244 14.991,4.728 14.985,3.174 16.086,1.923 17.592,1.767 19.536,1.566 21.06,3.552 20.517,5.574 20.376,6.102 20.229,6.303 20.001,6.273 19.827,6.252 18.693,6.207 17.481,6.174 Z M 3.801,74.88 C 3.477,74.682 3.126,74.358 3.018,74.157 2.559,73.302 2.979,71.979 3.831,71.592 c 0.693,-0.315 26.409,-0.315 27.102,0 0.915,0.417 1.302,1.86 0.72,2.688 -0.69,0.987 -0.327,0.96 -14.31,0.96 C 4.839,75.24 4.365,75.228 3.801,74.88 Z M 3.735,80.532 C 3.237,80.139 2.823,79.41 2.823,78.93 c 0,-0.792 0.642,-1.62 1.419,-1.836 0.459,-0.129 5.022,-0.195 13.284,-0.195 13.53,0 13.452,-0.006 14.115,0.942 0.495,0.705 0.39,1.761 -0.237,2.388 l -0.54,0.54 -13.422,-0.006 C 7.179,80.757 3.954,80.703 3.735,80.532 Z M 3.465,93.21 C 2.616,92.907 1.947,92.163 1.794,91.362 1.737,91.056 1.716,89.34 1.746,87.552 c 0.066,-3.636 0.168,-3.96 1.455,-4.617 0.585,-0.297 1.638,-0.321 14.085,-0.318 12.729,0.003 13.494,0.021 14.211,0.348 0.57,0.258 0.858,0.552 1.164,1.185 0.381,0.789 0.402,1.047 0.348,4.155 -0.063,3.621 -0.114,3.807 -1.326,4.71 -0.501,0.375 -0.693,0.381 -13.995,0.42 -11.319,0.033 -13.605,0 -14.223,-0.222 z"
     id="path4"
     inkscape:connector-curvature="0"
     style="fill:#444444" />
</svg>
