<?xml version="1.0" encoding="UTF-8" standalone="no"?>
<!-- Generated by IcoMoon.io -->

<svg
   xmlns:dc="http://purl.org/dc/elements/1.1/"
   xmlns:cc="http://creativecommons.org/ns#"
   xmlns:rdf="http://www.w3.org/1999/02/22-rdf-syntax-ns#"
   xmlns:svg="http://www.w3.org/2000/svg"
   xmlns="http://www.w3.org/2000/svg"
   xmlns:sodipodi="http://sodipodi.sourceforge.net/DTD/sodipodi-0.dtd"
   xmlns:inkscape="http://www.inkscape.org/namespaces/inkscape"
   version="1.1"
   width="30"
   height="50"
   viewBox="0 0 30 50"
   id="svg4220"
   inkscape:version="0.91 r13725"
   sodipodi:docname="salt.svg">
  <metadata
     id="metadata4229">
    <rdf:RDF>
      <cc:Work
         rdf:about="">
        <dc:format>image/svg+xml</dc:format>
        <dc:type
           rdf:resource="http://purl.org/dc/dcmitype/StillImage" />
        <dc:title></dc:title>
      </cc:Work>
    </rdf:RDF>
  </metadata>
  <defs
     id="defs4227" />
  <sodipodi:namedview
     pagecolor="#ffffff"
     bordercolor="#666666"
     borderopacity="1"
     objecttolerance="10"
     gridtolerance="10"
     guidetolerance="10"
     inkscape:pageopacity="0"
     inkscape:pageshadow="2"
     inkscape:window-width="1855"
     inkscape:window-height="1056"
     id="namedview4225"
     showgrid="false"
     inkscape:zoom="3.5898437"
     inkscape:cx="185.32971"
     inkscape:cy="53.899857"
     inkscape:window-x="65"
     inkscape:window-y="24"
     inkscape:window-maximized="1"
     inkscape:current-layer="svg4220" />
  <g
     id="icomoon-ignore"
     transform="matrix(0.04765385,0,0,0.04765385,2.2442837,1.7876359)" />
  <path
     d="M 9.731416,13.228018 C 8.7439535,13.209289 7.8792377,13.639642 7.2758085,14.284794 6.6723774,14.930133 6.306008,15.779972 6.1697902,16.686743 L 1.7568697,46.06465 C 1.6023891,47.093148 2.0345828,48.045238 2.7154211,48.692262 3.3962593,49.3391 4.3284165,49.729 5.3117851,49.729 l 19.8168019,0 c 0.983269,0 1.916314,-0.3899 2.596364,-1.036738 0.68005,-0.646837 1.109273,-1.597616 0.958551,-2.625552 L 24.395698,16.812028 c -0.266761,-1.819346 -1.590251,-3.439624 -3.548207,-3.46116 L 9.731416,13.227269 Z m -0.01574,1.371954 11.116076,0.123599 c 1.228321,0.01873 2.009807,0.954338 2.205325,2.287901 l 4.290025,29.25487 c 0.08041,0.548707 -0.13227,1.03524 -0.549654,1.432256 -0.417382,0.397016 -1.038969,0.659197 -1.648961,0.659197 l -19.8168018,0 c -0.6098941,0 -1.2332548,-0.261993 -1.6512308,-0.659197 C 3.2424867,47.301582 3.0331036,46.815611 3.1152485,46.268589 L 7.52595,16.893116 C 7.6264054,16.224369 7.9018414,15.627159 8.2789173,15.223962 8.6559931,14.820766 9.109935,14.59398 9.715636,14.600534 Z m 12.820936,10.539476 c -0.474368,-0.06742 -0.674919,0.193827 -0.761948,0.290646 -0.08703,0.09738 -0.123281,0.161054 -0.163114,0.225663 -0.159256,0.261057 -0.301888,0.558071 -0.551873,0.9137 -0.49642,0.706389 -1.295568,1.529449 -2.877877,1.78545 l -6.548979,-0.07865 C 10.477767,27.895157 9.783953,27.105619 9.338201,26.441926 9.110613,26.102964 8.986089,25.840222 8.784058,25.568116 8.7335352,25.500697 8.6849899,25.425789 8.5471942,25.322415 8.4093996,25.219413 8.0207791,25.063231 7.6757717,25.221287 c -0.3450094,0.159181 -0.4145714,0.389525 -0.4603069,0.513875 -0.045729,0.123599 -0.059344,0.214987 -0.073765,0.310496 L 4.3330946,44.705056 c -0.1273824,0.846656 0.3030715,1.621026 0.8959931,2.0937 0.5929216,0.472675 1.3577814,0.7283 2.165118,0.7283 l 15.6630433,0 c 0.807337,0 1.574316,-0.255625 2.167337,-0.7283 0.593019,-0.472674 1.0219,-1.249104 0.893772,-2.095947 L 23.289621,26.009888 c -0.01423,-0.09363 -0.02421,-0.179781 -0.07597,-0.314991 -0.02584,-0.06742 -0.06073,-0.151691 -0.154181,-0.26368 -0.09345,-0.112362 -0.285656,-0.258809 -0.522863,-0.292705 z M 8.4800559,27.869873 c 0.5873961,0.736915 1.3982841,1.548926 2.7416101,1.964107 0.07015,0.02248 0.150866,0.03558 0.234594,0.03558 l 6.810411,0.0824 c 0.04706,0 0.09315,0 0.137888,-0.01873 1.787941,-0.277724 2.852567,-1.204908 3.555558,-2.048006 l 2.580725,17.050547 c 0.03299,0.218359 -0.04165,0.395705 -0.310572,0.610132 -0.268932,0.214238 -0.721147,0.379787 -1.173066,0.379787 l -15.6630428,0 c -0.4519189,0 -0.9019633,-0.1648 -1.1707959,-0.379787 C 5.9545379,45.331481 5.8776722,45.154509 5.9105796,44.935962 L 8.4801035,27.862943 Z M 9.154875,9.4295817 c -1.4415031,0 -2.6231533,1.1816863 -2.6231533,2.6231183 0,1.441431 1.1816988,2.623117 2.6231533,2.623117 l 12.622062,0 c 1.441503,0 2.623153,-1.181686 2.623153,-2.623117 0,-1.441432 -1.181698,-2.6231183 -2.623153,-2.6231183 l -12.622062,0 z m 0,1.3717663 12.622062,0 c 0.704717,0 1.251262,0.546647 1.251262,1.251352 0,0.704703 -0.546545,1.251163 -1.251262,1.251163 l -12.622062,0 c -0.7047176,0 -1.2512632,-0.54646 -1.2512632,-1.251163 0,-0.704705 0.5465456,-1.251352 1.2512632,-1.251352 z M 8.6835166,0.71316016 c -1.2564929,0 -2.2902343,1.03379714 -2.2902343,2.29022324 l 0,5.2306545 c 0,1.2565945 1.0337901,2.2903361 2.2902343,2.2903361 l 13.4577164,0 c 1.256493,0 2.288013,-1.0337416 2.288013,-2.2903361 l 0,-5.2306545 c 0,-1.2564822 -1.03152,-2.29022324 -2.288013,-2.29022324 l -13.4577164,0 z m 0,1.36073654 13.4577164,0 c 0.526565,0 0.929493,0.4029717 0.929493,0.9294867 l 0,5.2306545 c 0,0.5266089 -0.402977,0.929618 -0.929493,0.929618 l -13.4577164,0 c -0.5265652,0 -0.9294936,-0.4030091 -0.9294936,-0.929618 l 0,-5.2306545 c 0,-0.5265525 0.4029771,-0.9294867 0.9294936,-0.9294867 z M 10.349647,4.0430608 C 10.113377,4.3690638 9.669055,4.4346277 9.355426,4.1896948 9.041796,3.9447806 8.976721,3.4815073 9.209841,3.1529949 9.442954,2.8245013 9.886584,2.7542556 10.202582,2.9958738 c 0.315997,0.2415994 0.37821,0.7187683 0.148301,1.049659 l -0.568994,-0.45052 z m 11.164919,-0.0309 C 21.278295,4.338164 20.833974,4.4037278 20.520343,4.1587949 20.206714,3.9138807 20.141639,3.4506075 20.374758,3.1220951 20.607871,2.7936013 21.051503,2.7233556 21.3675,2.9649739 21.683499,3.2065734 21.745711,3.6837423 21.5158,4.014633 L 20.946806,3.5640942 Z m -5.764387,0 c -0.236271,0.3260032 -0.680592,0.391567 -0.994222,0.1466341 -0.31363,-0.2449142 -0.378704,-0.7081874 -0.145586,-1.0366998 0.233115,-0.3284938 0.676746,-0.3987395 0.992744,-0.1571212 0.315997,0.2415995 0.37821,0.7187684 0.148301,1.0496591 L 15.182422,3.5640942 Z"
     id="path4223"
     inkscape:connector-curvature="0"
     style="fill:#000000" />
</svg>
